<svg version="1.0" xmlns="http://www.w3.org/2000/svg" xmlns:xlink="http://www.w3.org/1999/xlink" viewBox="0 0 140 140" color-interpolation-filters="sRGB" style="margin:auto"><rect width="100%" height="100%" fill="none" class="prefix__prefix__background"/><g fill="#333" class="prefix__prefix__icon-text-wrapper prefix__prefix__icon-svg-group prefix__prefix__iconsvg"><g class="prefix__prefix__iconsvg-imagesvg prefix__prefix__icon_container" transform="translate(20 20)"><path class="prefix__prefix__image-rect" fill="none" d="M0 0h100v100H0z"/><svg viewBox="0 0 60 60" width="100" height="100" class="prefix__prefix__image-svg-svg prefix__prefix__bn" overflow="visible"><g mask="url(#prefix__a)"><svg xmlns="http://www.w3.org/2000/svg" xmlns:xlink="http://www.w3.org/1999/xlink" viewBox="3.728 3.728 92.545 92.545" fill-rule="evenodd" clip-rule="evenodd" width="60" height="60" filter="url(#prefix__b)" shape-rendering="geometricprecision" text-rendering="geometricprecision" image-rendering="optimizequality" overflow="visible"><defs><filter id="prefix__b"><feColorMatrix values="0 0 0 0 0.19921875 0 0 0 0 0.19921875 0 0 0 0 0.19921875 0 0 0 1 0"/></filter></defs><path class="prefix__prefix__fil0" d="M50 3.728L96.272 50 50 96.272 3.728 50 50 3.728zm0 8.352L12.08 50 50 87.92 87.92 50 50 12.08z"/></svg></g><g filter="url(#prefix__c)"><svg xmlns="http://www.w3.org/2000/svg" xmlns:xlink="http://www.w3.org/1999/xlink" viewBox="0 0 93.024 62.424" width="45" height="45" x="7.5" y="7.5" class="prefix__prefix__image-svg-letter"><path d="M0 55.292l40.75-48.16H2.52V.002h52.13v7.13L13.9 55.292h43.63l-2.31 7.13H0v-7.13zm66.17 7.13v-7.13h15.62V.002h11.23v56.95q0 2.3-1.58 3.89-1.58 1.58-3.89 1.58H66.17z"/></svg></g><mask id="prefix__a"><svg xmlns="http://www.w3.org/2000/svg" xmlns:xlink="http://www.w3.org/1999/xlink" viewBox="3.728 3.728 92.545 92.545" fill-rule="evenodd" clip-rule="evenodd" width="60" height="60" shape-rendering="geometricprecision" text-rendering="geometricprecision" image-rendering="optimizequality" overflow="visible" fill="#fff"><path d="M50 3.728L96.272 50 50 96.272 3.728 50 50 3.728zm0 8.352L12.08 50 50 87.92 87.92 50 50 12.08z"/></svg><g fill="#000" filter="url(#prefix__d)"><svg xmlns="http://www.w3.org/2000/svg" viewBox="0 0 93.024 62.424" width="45" height="45" x="7.5" y="7.5" class="prefix__prefix__image-svg-letter"><path transform="translate(-4.32 51.192)" d="M4.32 4.1l40.75-48.16H6.84v-7.13h52.13v7.13L18.22 4.1h43.63l-2.31 7.13H4.32V4.1zm66.17 7.13V4.1h15.62v-55.29h11.23V5.76q0 2.3-1.58 3.89-1.58 1.58-3.89 1.58H70.49z"/></svg></g><defs><filter id="prefix__d"><feGaussianBlur in="SourceGraphic" stdDeviation="1.26"/><feComponentTransfer><feFuncA type="discrete" tableValues="0 1 1 1 1 1 1 1 1 1 1 1 1 1 0"/></feComponentTransfer></filter></defs></mask></svg><defs><filter id="prefix__c"><feColorMatrix values="0 0 0 0 0.19921875 0 0 0 0 0.19921875 0 0 0 0 0.19921875 0 0 0 1 0" class="prefix__prefix__icon-fecolormatrix"/></filter></defs></g></g></svg>